<svg xmlns="http://www.w3.org/2000/svg" viewBox="0 0 113.26 82.33"><title>arrowsvg</title><g id="bf167236-8c4f-435f-84fe-57d510e57e1b" data-name="Layer 2"><g id="e7f8e890-fd14-4a7e-ab43-c16124a48bd1" data-name="Layer 1"><path d="M103,26s-.13,0-.14,0c-.11.2-.38.34-.33.61s-.14.34-.2.51a.55.55,0,0,0,0,.28s.07.06.11.09l.22.17c-.06.15-.21.17-.34.21s-.17.14-.16.2a5.69,5.69,0,0,0,.12.72c0,.1,0,.22-.09.25s-.16-.06-.22-.12-.18-.11-.21,0c-.11.53-.1.54-.28.77,0,0-.07.06-.09.06a.24.24,0,0,1-.17-.22,5.55,5.55,0,0,0-.13-.71c0-.06-.17-.15-.22-.13a.91.91,0,0,1-1-.29c-.07-.27,0-.6-.35-.74,0,0-.07-.07-.06-.09l.31-.48.26.18s.09.05.11,0a.26.26,0,0,0,.09-.26c-.08-.51-.07-.51-.45-.54s-.24,0-.29-.24a1.18,1.18,0,0,0-.08-.43c-.07-.11-.21-.17-.32-.26.08-.16.27-.28.19-.51a.25.25,0,0,1,.09-.26c.2-.21,0-.56.28-.77a1.2,1.2,0,0,1,.46-.28c.12-.06.1-.15,0-.21-.35-.29-.37-.34-.14-.69a.24.24,0,0,0,0-.27.21.21,0,0,1,.07-.26c.16-.14.1-.34.13-.52s.15-.24.19-.37-.15-.37-.34-.33l-1,.18a.69.69,0,0,1-.55.4,5.89,5.89,0,0,0-.84.14c-.13.15-.18.35-.42.38-.43.05-.86.14-1.26.21-.32.44-.32.44-.71.27l.6-.83c.24,0,.45-.09.39-.44s0-.24.24-.28a3.21,3.21,0,0,1,.43-.07c.29,0,.39-.21.54-.38l.24.17.13.05.14,0s.11,0,.12,0c.1-.25.36-.29.54-.42A1.66,1.66,0,0,0,99,20s0-.09,0-.14c0-.31,0-.31.31-.13l.13.09.71-.13c.21,0,.23-.05.25-.27a2.35,2.35,0,0,1,0-.27c.14-.41.14-.42-.16-.36a.64.64,0,0,1-.66-.12.16.16,0,0,0-.13,0,4.92,4.92,0,0,0-.55.14c-.1,0-.11.16-.06.26l-.71.13-.25.33c-.28-.29-.6-.21-.92-.11-.15.39-.51.38-.83.42a.53.53,0,0,0-.44.31.28.28,0,0,1-.1.09,1.85,1.85,0,0,0-.55.13c-.14.1-.19.32-.42.34s-.21.3-.4.36a5.44,5.44,0,0,0-.54.15c-.1,0-.11.15,0,.25a1.3,1.3,0,0,0-.42.09,1.27,1.27,0,0,0-.26.33L92,22c-.15.23-.33.51-.5.79,0,0,0,.07,0,.09a.21.21,0,0,0,.12.07l.84-.15a1.4,1.4,0,0,0,.35.23,1.28,1.28,0,0,0,.42-.07c.06.11,0,.23-.06.26s-.46.11-.69.18-.22,0-.24.1c-.11.31-.49.26-.64.52a9.56,9.56,0,0,1-.6.82.5.5,0,0,0-.44.31c-.08.13-.17.24-.26.37a9.93,9.93,0,0,1-1.11.24c-.08,0-.15.12-.19.2s-.46.13-.55.4a2.68,2.68,0,0,1-.29.47l-.89.16c-.1.12-.18.3-.29.32a.81.81,0,0,0-.44.33c-.13.16-.36.09-.53.16s-.14.12-.21.18-.13.16-.2.18c-.29.05-.58.07-.71.4a.69.69,0,0,0-.54.41c-.29,0-.4.22-.54.4a.49.49,0,0,0-.45.3c-.08.14-.28.08-.37.18s-.19.32-.42.34a1.58,1.58,0,0,0-.58.11c-.15.07-.25.29-.41.34s-.29.23-.42.36-.26,0-.37.17-.24.26-.45.3-.24,0-.45.28a.33.33,0,0,1-.24.14.71.71,0,0,0-.61.31c-.11.19-.42.16-.53.42s-.26.1-.39.12a.46.46,0,0,0-.35.22c-.1.17-.22.32-.33.48a.66.66,0,0,0-.54.41c-.3,0-.4.22-.55.4a.48.48,0,0,0-.45.3.29.29,0,0,1-.1.09l-.29,0-.55.13c-.09.31-.47.28-.63.53a.47.47,0,0,1-.2.17.94.94,0,0,1-.29.06.37.37,0,0,0-.33.23.26.26,0,0,1-.22.16c-.19,0-.38.08-.57.1a.38.38,0,0,0-.25.13c-.27.27-.28.26-.45.29s-.24,0-.45.29a.29.29,0,0,1-.24.13c-.14,0-.28.05-.41.07l-.35.5c-.19.26-.29.28-.59.1-.11-.07-.16-.1-.22,0s-.12.27-.3.28a.69.69,0,0,0-.69.42c-.38,0-.47.31-.62.53s-.28.09-.43,0a.33.33,0,0,0-.38.06c-.11.16-.21.32-.31.49.12.34-.19.51-.31.75-.15-.06-.18-.2-.22-.34a.28.28,0,0,0-.2-.17c-.24,0-.48.08-.72.12s-.2.07-.22.3,0,.34-.28.38a.66.66,0,0,0-.58.35,2.12,2.12,0,0,1-.25.36c-.13.19-.22.44-.53.42a.93.93,0,0,0-.29,1s-.08.13-.12.2-.11-.05-.12-.08a.76.76,0,0,0-.41-.54c-.1-.07-.16-.11-.22-.06s-.07.16,0,.27,0,.28-.19.31l-.77.14-.39.56s-.06.11-.09.11c-.29,0-.38.23-.55.37,0,0-.1,0-.11-.08a.65.65,0,0,0-.41-.53,2.13,2.13,0,0,1,.16-.25c.18-.26.18-.26.51,0,.29-.3.44-.71.76-1,.17.13.32.27.53.17s.11-.12.17-.18a.54.54,0,0,1-.12-.09c-.06,0-.17-.12-.17-.18s.1-.15.21-.15l.15,0,.29,0,.5-.68.45-.08a.3.3,0,0,0,.22-.16c.13-.2.32-.37.2-.65.07-.22.32-.16.45-.29s.06-.09,0-.11a.23.23,0,0,0-.12-.09h-.14c-.39,0-.48-.18-.28-.53.06-.1.11-.17.06-.23a.23.23,0,0,0-.26,0c-.14,0-.29,0-.43.09a.13.13,0,0,0-.08.12c.08.38-.19.62-.38.88a.25.25,0,0,0,0,.27.19.19,0,0,1-.26-.06c-.11-.14-.06-.4-.3-.43a1.06,1.06,0,0,0-.42.07c-.11,0-.21,0-.26-.08a.35.35,0,0,1,0-.39l.16-.24s-.05-.07-.09-.09c-.24-.08-.46,0-.7.07s-.43,0-.39-.08a.58.58,0,0,1,.2-.18c.07,0,.18-.06.25-.11.35-.3.35-.3.58-.34s.25,0,.39.27.14.27.26.12.11-.22.16-.22c.3,0,.41-.23.54-.43s.06-.24-.11-.25-.22.05-.28,0a.68.68,0,0,0-.66-.14,4.21,4.21,0,0,1-.71.12c-.08,0-.17-.06-.25-.1l.08-.12.09-.12a.47.47,0,0,0,0-.4.24.24,0,0,0-.25-.08c-.29,0-.58.12-.86.15s-.29.22-.43.37a3.76,3.76,0,0,0-.55.1.61.61,0,0,1-.64-.18l-.73.12c-.07-.17.08-.26.15-.38s0-.09,0-.11a.24.24,0,0,0-.25-.09c-.17,0-.24.13-.33.24a.33.33,0,0,1-.49.1l-.23-.15-.86.15c-.23.34-.23.35-.56.39a.54.54,0,0,0-.44.31c-.06.13-.22.21-.14.39a2.89,2.89,0,0,1-.29,0c-.11,0-.2,0-.22.15s0,.13.15.19l.11.08c0,.07-.07.18-.13.19-1.05.19-2.1.36-3.15.53a.16.16,0,0,1-.12-.08s0-.08.06-.11.37-.08.45-.29.31-.19.49-.24a.4.4,0,0,1,.39.1.27.27,0,0,0,.26.09l1-.18a.19.19,0,0,0,.1-.1c.06-.07,0-.11-.09-.19-.33-.26-.31-.49,0-.6a.32.32,0,0,0,.22-.16c.07-.12.15-.24.32-.24l.29,0c.18,0,.23-.08.2-.3s0-.29.15-.35.29,0,.43-.09a.83.83,0,0,0,.21-.17,1.12,1.12,0,0,0-.25-.11c-.08,0-.2,0-.26,0a.67.67,0,0,0-.53-.15c-.38.09-.76.14-1.15.21-.13,0-.29,0-.39.14s0,.27,0,.41-.06.08-.08.12-.17-.1-.19-.16c-.06-.24-.08-.48-.14-.72a.43.43,0,0,0-.18-.2c-.07,0-.31.08-.37.16s-.34.36-.23.64c-.1.16-.2.33-.31.49s-.12,0-.22-.06-.26-.07-.27.08,0,.19,0,.29,0,.17-.31,0a.33.33,0,0,0-.27-.06c-.11,0-.2,0-.23.15s0,.29,0,.4a.92.92,0,0,1-.33.42c-.32-.21-.32-.21-.52.08,0,.08-.15.19-.13.24.11.26-.13.42-.17.63l.49.34c.22.16.24.31.06.6a.83.83,0,0,1-.08.12c.07,0,.15.12.22.12a3.21,3.21,0,0,0,.43-.07c.15,0,.24.07.28.25a2.74,2.74,0,0,0,0,.28,5.57,5.57,0,0,0-.71.14.13.13,0,0,0-.07.2.21.21,0,0,0,.11.07.22.22,0,0,0,.14,0,.19.19,0,0,1,.26.06c.07.08,0,.18-.22.23s-.19,0-.22.15a.11.11,0,0,0,0,.09c.11.09.23.17.35.25S50,42.1,50,42s.44-.16.56-.46c-.43,0-.37-.35-.43-.62l1.7-.29c.11,0,.2,0,.23-.13.11-.27.36-.3.59-.31s.23-.15.32-.26,0-.11.08-.11c.29,0,.4-.21.53-.4l1-.17c0,.05,0,.11,0,.14a3.37,3.37,0,0,1-.22.35,4,4,0,0,0,.37.25.61.61,0,0,1,.36.57.21.21,0,0,0,0,.14.66.66,0,0,0,.18.19c.09.05.4-.11.37-.16a.46.46,0,0,0-.16-.18c-.12-.06-.16-.12-.08-.2s.06-.07.1-.08c.22-.08.38,0,.43.2s0,.21.14.23a1.2,1.2,0,0,1,.65.19c.09.08.27,0,.38-.08.28-.29.28-.28.44-.31a5.62,5.62,0,0,1,.57-.09.14.14,0,0,1,.17.14.16.16,0,0,1-.08.12c-.12.06-.27,0-.37.17s-.28.38-.43.57c-.36,0-.42.35-.6.55.1.12.24.09.38.1a1.09,1.09,0,0,1,.37.19,1.88,1.88,0,0,1,.23.16c.13.13.27.06.41.06a.14.14,0,0,1,.16.15.16.16,0,0,1-.09.12c-.34.14-.34.14-.45.29s-.2.28-.11.34a.49.49,0,0,0,.27,0c.31,0,.32,0,.12.31-.06.09-.11.16-.06.26s-.17,0-.26-.05a.48.48,0,0,0-.38-.14c-.3,0-.31,0-.15-.28a.36.36,0,0,0,.07-.26l-.12-.7c0-.15-.4-.23-.48-.08a.79.79,0,0,1-.7.39.24.24,0,0,1-.25-.1s0-.07,0-.11.22-.2.14-.38l.28-.05c.23,0,.31-.17.23-.39s-.11-.14-.17-.2l-.08.1c-.09.1-.12.27-.31.26s-.25,0-.33-.17c-.2-.4-.37-.53-.71-.54s-.31,0-.15-.3l.09-.13a3.81,3.81,0,0,1-.32-.24.43.43,0,0,0-.39-.09c-.18,0-.38,0-.49.24a.35.35,0,0,1-.19.17,3.78,3.78,0,0,0-.82.2.18.18,0,0,0-.06.26l-1,.18-.25.36a.25.25,0,0,0-.08.25c0,.11,0,.21,0,.27a.48.48,0,0,1-.24.11c-.34.07-.67.14-1,.18a.58.58,0,0,0-.44.33.14.14,0,0,1-.09,0c-.25-.27-.38-.09-.51.13s-.3,0-.4,0c-.27-.16-.27-.16-.53-.12l-.28,0-.84-.59.22-.35a.75.75,0,0,1-.42-.54c0-.1-.15-.1-.26-.07s-.28.13-.26.26a1.35,1.35,0,0,0,0,.29.45.45,0,0,1-.09.4c-.12.15-.22.32-.35.5s0,.26.07.4,0,.33-.14.35a9.64,9.64,0,0,0-1.12.23c-.15.21-.28.42-.44.61a.33.33,0,0,1-.26.07.28.28,0,0,1-.21-.15,5.54,5.54,0,0,1-.14-.55.15.15,0,0,0-.12-.08s-.07,0-.08.09c-.08.19.07.39,0,.56s-.27.49-.16.8a5,5,0,0,1,.15.77l-.72,1c.32.13.42.12.53,0,.25-.36.51-.71.75-1.08s.28,0,.42,0,.15,0,.16-.16c0-.41,0-.42.33-.48s.33,0,.56-.39l.87-.15.87.63c-.11.13-.23.28-.36.42a.38.38,0,0,1-.39,0c-.35-.17-.35-.17-.52-.14l-.43.08c-.19,0-.31.14-.25.23a.21.21,0,0,0,.27.07.22.22,0,0,1,.14,0,.32.32,0,0,1,.12.08.14.14,0,0,1-.09.2,2.2,2.2,0,0,1-.43.09.91.91,0,0,1-.78-.13l-.33.48c-.16.23-.52.22-.64.52,0,.05-.17.06-.26.07a.49.49,0,0,0-.47.28.21.21,0,0,1-.23.15,3.44,3.44,0,0,0-.42.07c-.09,0,0,0,0,0s.18,0,.11-.16a.27.27,0,0,0-.1-.08.28.28,0,0,0-.12,0c-.15,0-.33.1-.33.18s.14.14.44.1.17.16.09.22a1.1,1.1,0,0,1-.64.15s-.08-.05-.12-.08c-.28-.15-.28-.15-.29,0s0,.18,0,.27-.08.26-.25.25a.18.18,0,0,0-.14-.22.37.37,0,0,0-.38.07.18.18,0,0,0-.06.25l-.29.05c-.22,0-.22,0-.32-.17s-.17-.33-.38-.3l-.57.11c-.18,0-.24.06-.21.29s-.12.35-.21.51l.32.26-.21.34.37.26c.29.21.29.21,0,.4,0,0-.11,0-.13.05-.23.31-.44.64-.68.95,0,.06-.18,0-.26.09s-.14.15-.12.19a.17.17,0,0,0,.25.07.23.23,0,0,1,.27.05c0,.06,0,.12-.06.22s-.27.4-.42.59a.41.41,0,0,1-.25.11.68.68,0,0,0-.58.35.4.4,0,0,1-.25.1.76.76,0,0,0-.58.35c-.11.13-.34.12-.45.3a.7.7,0,0,0-.15.66c0,.09,0,.21,0,.27a8,8,0,0,1-.61.8s-.19,0-.27,0-.16-.1-.05-.2a1.42,1.42,0,0,0,.14-.23.31.31,0,0,0-.39-.06.29.29,0,0,0-.15.21.82.82,0,0,0,.48.81.56.56,0,0,1,.3.29c0,.1,0,.35-.12.37l-.72.13c-.1,0-.21,0-.25-.09s.08-.15.12-.23l.09-.12c-.09,0-.17-.1-.25-.1a.36.36,0,0,0-.25.1c-.12.16-.22.3-.44.32s-.48.09-.73.11a.45.45,0,0,0-.32.25c-.11.15-.26.29-.18.51a3.19,3.19,0,0,1-.63.93c-.3,0-.34.31-.55.4a.64.64,0,0,0-.25.11c-.23.22-.29.63-.71.65l-.5.67a3.1,3.1,0,0,0-.26-.18.38.38,0,0,0-.39.05,4.72,4.72,0,0,0-.52.82c.31.23.31.23.09.52a.47.47,0,0,1-.32.24c-.25,0-.26.38-.55.4s-.26.4-.55.39c-.07,0-.13.13-.2.19-.18.21-.24.55-.61.55,0,0-.1.15-.11.24-.06.37-.05.37-.39.43s-.19,0-.45.3c0,0-.07.09-.1.09-.3,0-.4.24-.52.44a.64.64,0,0,1-.58.35.36.36,0,0,0-.33.23c-.08.16-.23.16-.36.19s-.28,0-.39.14c-.25.28-.26.29-.45.3a.58.58,0,0,0-.52.39L20.16,67c-.17-.09-.29-.26-.52-.2s-.66.12-1,.17l-.36.51c-.16.24-.53.22-.62.53l-.12,0-.24-.17-.88.16c-.07,0-.14-.12-.22-.17a.33.33,0,0,0-.48.11.51.51,0,0,1-.33.24c-.72.12-1.44.26-2.16.37a.64.64,0,0,0-.44.32c-.1.13-.26.11-.4.13a.47.47,0,0,0-.35.21.35.35,0,0,1-.2.18,3.78,3.78,0,0,1-.57.1.45.45,0,0,0-.34.23c-.11.17-.22.32-.33.48L10.4,70c-.17-.11-.19-.1-.21.19s0,.34-.27.39a.64.64,0,0,1-.67-.12s-.07,0-.09,0a.18.18,0,0,0-.08.12,3.21,3.21,0,0,0,.07.43.2.2,0,0,1-.06.26.14.14,0,0,1-.11,0l-.71-.5a.29.29,0,0,1-.07-.12.32.32,0,0,1,.1-.38c.19,0,.38-.07.56-.12s.07-.07.08-.11,0-.07,0-.09c-.36-.31-.37-.36-.07-.82a.6.6,0,0,1-.4-.55c0-.14,0-.3-.19-.34s-.13.11-.17.19a.23.23,0,0,1-.23.15s-.12,0-.14,0a7.11,7.11,0,0,0-.5.72c-.12.23-.36.28-.53.42s-.23.28-.45.31c-.48.07-1,.17-1.53.27l-.34.65-2.68.47a.2.2,0,0,1-.12-.08c-.09-.43-.48-.55-.77-.81-.05,0-.06-.17-.05-.26,0-.29-.2-.41-.4-.55l.09-.12c.19-.29.18-.4,0-.6,0,0-.1,0-.12-.09A3.52,3.52,0,0,1,0,67.64c.21-.17.15-.42.2-.64s.12-.14.24-.13a.65.65,0,0,0,.13,0c.25-.36.51-.72.75-1.08.12-.17.23-.31.45-.3A.76.76,0,0,1,2.46,65c.22,0,.25,0,.24-.27s0-.38.26-.41c0,0,.12,0,.13,0,.14-.24.45-.41.3-.76.06-.15.19-.18.33-.23s.2-.16.17-.33,0-.25.19-.31.31-.1.29-.24a.75.75,0,0,1,.15-.53c.06-.11,0-.27,0-.4s.11-.16.23-.15a.21.21,0,0,0,.14,0c.44-.35.44-.35.7-.41s.21-.07.21-.3c0,0,0-.1,0-.14s.12-.2.27-.09.16.11.22.06.07-.16.05-.27,0-.28.19-.31l.29-.06c.26,0,.27,0,.27-.38,0-.17.06-.28.23-.29A.29.29,0,0,0,7.58,59c.13-.2.27-.39.39-.56l.6-.14c.09-.31.47-.29.62-.53s.5-.23.64-.52a5.14,5.14,0,0,1,.47-.71c.15-.05.3,0,.4-.18s.29-.38.43-.57c.23,0,.3-.2.44-.31s.44-.18.54-.42a.69.69,0,0,0,.53-.41c.28,0,.42-.2.55-.4a.56.56,0,0,0,.46-.29c.13-.19.43-.15.54-.41s.37-.08.44-.3.38-.14.45-.29c.14-.34.63-.27.72-.65.28,0,.41-.2.54-.4a.54.54,0,0,0,.46-.29c.13-.18.43-.15.54-.41s.37-.08.45-.29.37-.14.44-.3c.14-.34.63-.26.72-.64.28,0,.41-.21.54-.4.3,0,.4-.23.54-.42l.33-.48s0-.1,0-.14l.42-.08a.19.19,0,0,0,.08-.11c0-.07,0-.16-.13-.17a1.54,1.54,0,0,0-.42.07c-.06-.11-.05-.22.06-.26a.92.92,0,0,0,.54-.41,2.82,2.82,0,0,1,.24-.36l.36.21c.13-.24.42-.42.3-.76,0,0,0-.09.07-.12s.07-.08.11-.08a.87.87,0,0,0,.8-.5.61.61,0,0,1,.44-.33c.17,0,.17-.35.41-.35s.29-.24.39-.39a.89.89,0,0,1,.54-.41c.1,0,.09-.15.08-.25s0-.32.15-.34a8.79,8.79,0,0,1,.87-.15c.23,0,.28-.24.43-.33s.43-.19.53-.42A3.15,3.15,0,0,1,27,42.9a.26.26,0,0,0,.24-.13.46.46,0,0,1,.46-.29l.26-.35a.49.49,0,0,0,.45-.3c.08-.14.26-.09.37-.17s.08-.09.08-.12c-.09-.27.06-.45.2-.65s.11-.17.21-.17a.39.39,0,0,0,.33-.24.23.23,0,0,1,.22-.16c.18,0,.25-.13.32-.25s.26-.1.37-.17.15-.27.27-.33.4,0,.55-.14.19-.31.42-.35.26-.41.55-.38a2.79,2.79,0,0,0,.28-.32c.18-.23.34-.47.51-.71.1,0,.23,0,.28-.06.25-.27.36-.69.8-.76.08-.12.18-.23.25-.36a.61.61,0,0,1,.58-.35.32.32,0,0,0,.14,0,.22.22,0,0,0,.1-.09c.08-.29.4-.23.55-.41s.2-.24.45-.29.22,0,.45-.29a.34.34,0,0,1,.25-.13c.22,0,.22-.3.41-.36s.37-.08.54-.15.1-.17.18-.23.37-.08.45-.29.21-.17.35-.2a.18.18,0,0,0,.1-.09.49.49,0,0,1,.45-.3l.27-.34a.49.49,0,0,0,.45-.3.23.23,0,0,1,.24-.12.69.69,0,0,0,.6-.33c.05-.1.25-.1.35-.19s.14-.27.29-.29a.42.42,0,0,0,.34-.23c.07-.16.22-.16.36-.19s.27,0,.39-.15.27-.27.44-.3.26,0,.46-.28a.3.3,0,0,1,.24-.14.64.64,0,0,0,.6-.32c.1-.19.35-.12.52-.17a.27.27,0,0,0,.21-.17s-.05-.06-.09-.09A.5.5,0,0,0,45,29.6l-.11-.09a1.18,1.18,0,0,1,.21-.18c.21-.09.35.08.52.19.08-.11.14-.25.25-.31a1.18,1.18,0,0,1,.43-.09c.21,0,.26-.06.24-.27s.19-.53.38-.73.18,0,.28-.05a.42.42,0,0,0,.36-.2c.13-.26.53-.22.62-.53a5.54,5.54,0,0,0,.55-.14c.18-.06.18-.34.41-.36a.32.32,0,0,0,.24-.13c.22-.25.23-.25.45-.29s.25,0,.45-.29.3-.08.37-.18a.85.85,0,0,1,.55-.4c.09-.25.33-.32.54-.41a.59.59,0,0,1,.58-.35c.11,0,.2,0,.24-.11.12-.27.35-.31.6-.33a.32.32,0,0,0,.24-.13c.22-.25.23-.25.45-.29s.25,0,.45-.29.38-.07.46-.29a.4.4,0,0,1,.33-.24c.08,0,.16-.1.21-.17a.44.44,0,0,1,.34-.22l.15,0c.29,0,.31-.33.54-.4s.43,0,.53-.17a.66.66,0,0,1,.6-.32.23.23,0,0,0,.24-.13s.06-.08.08-.12.26-.1.37-.18a2.27,2.27,0,0,0,.27-.33s.09,0,.14,0l.29-.05a.24.24,0,0,0,.21-.16c.13-.27.54-.22.63-.53l.4-.12a1.45,1.45,0,0,0,.25-.1.54.54,0,0,0,.09-.12l.34-.49.85-.15.53-.71.85-.15c.12-.33.41-.37.7-.4a.61.61,0,0,0,.58-.35,3.41,3.41,0,0,1,.84-.19c.13,0,.33,0,.38-.14s.41-.23.55-.41.23-.3.45-.29l.26-.35,2-.35c.14,0,.31,0,.36-.18s0-.19,0-.27.08-.21.14-.22c.48-.1,1-.19,1.44-.26a.6.6,0,0,0,.44-.31c.11-.15.37-.08.46-.29a.37.37,0,0,1,.2-.19c.19-.05.39-.05.57-.11.44-.13,1,0,1.29-.49.18,0,.37-.09.56-.12s.31-.06.55-.39a2.67,2.67,0,0,0,.36.22.35.35,0,0,0,.28-.06,4,4,0,0,0,.34-.47.42.42,0,0,1,.34-.23c.14,0,.28-.07.43-.07.33,0,.36-.42.69-.43s.53,0,.67-.18a.73.73,0,0,1,.6-.33l.29-.05c.23,0,.22,0,.38.28a1.18,1.18,0,0,0,.18.21,2,2,0,0,1,.17-.23.34.34,0,0,1,.49-.06l.12.08.11,0,.93-1.32a6.19,6.19,0,0,1,.86-.15c.29,0,.4-.22.54-.41l.85-.15c.13-.15.19-.34.42-.36a6.64,6.64,0,0,0,.87-.16c.31-.07.7,0,.87-.39,0,0,.07-.06.11-.07a5.22,5.22,0,0,0,.57-.11c.36-.09.81,0,1-.43a5.44,5.44,0,0,1,.7-.15c.23,0,.3-.22.44-.38a9.51,9.51,0,0,1,1.11-.19.65.65,0,0,0,.55-.4A6.6,6.6,0,0,1,90.94,7c.29,0,.4-.22.55-.41l.84-.15c.13-.15.19-.35.43-.36a3.78,3.78,0,0,0,.57-.1c.31-.09.7,0,.88-.39,0-.06.16-.09.25-.1.43-.08.86-.17,1.29-.23.23,0,.31-.2.43-.33s.18,0,.26-.09.16-.19,0-.28a2.12,2.12,0,0,0-.36-.25c-.08,0-.22.08-.28,0-.29-.18-.57-.38-.84-.58s-.55-.06-.78-.28-.57-.37-.82-.6-.56,0-.78-.27A3.19,3.19,0,0,0,92,2.21l-.72-.5-.6-.42c-.19-.14-.42-.24-.42-.54,0-.06-.15-.12-.23-.17s-.13-.24-.13-.37,0-.17.31,0c0,0,.08.08.12.08a.9.9,0,0,0,.28,0,.54.54,0,0,1,.54.11.33.33,0,0,0,.48-.1c.22-.28.36-.31.59-.16l.24.17a.48.48,0,0,1,.11.09.37.37,0,0,0,.4.07.69.69,0,0,1,.67.15c.1.07.26,0,.4,0,.31.17.32.16.52.13L95,.67l.55.5.38-.07a.42.42,0,0,1,.4.06c.11.1.24.16.35.26a.42.42,0,0,0,.4.07c.19,0,.38-.09.54.08a.24.24,0,0,0,.26.08.67.67,0,0,1,.79.15c.27-.12.45.07.65.19.31-.18.5.24.8.16s.38.29.65.18c.06,0,.17.06.25.11s.32.22.49.34l.56-.1.37.24.36.24c.31-.18.5.26.79.16,0,0,.12,0,.14,0,.19.26.55.08.76.28s.47,0,.66.19a2.54,2.54,0,0,0,.46.35l.59-.11c.2.19.53.25.56.61,0,0,.13.12.22.14s.18,0,.27,0a.18.18,0,0,1,.15.22c0,.11,0,.21.14.22a1,1,0,0,1,.65.21c.18.15.37.33.64.21l.36.23.17-.24c.07-.09.31-.18.38-.12.4.34.81.13,1.21,0,.07,0,.1-.16.17-.23a.13.13,0,0,1,.2.09.59.59,0,0,0,.31.45c.17.09.07.37.29.45s.16.33.3.45a.75.75,0,0,1,.33.44c0,.14.18.19.34.14a.19.19,0,0,1,.25.08s-.08.16-.15.19-.37.08-.55.15-.11.15-.06.26-.17,0-.26,0c-.3-.21-.33-.2-.31.11s0,.33-.27.39-.27.14-.14.25c.33.27.33.36.14.69s-.35.28-.54.4a.14.14,0,0,0,0,.11l.47.34a1.27,1.27,0,0,1,.26-.33,1.12,1.12,0,0,1,.42-.08c0,.23.14.46-.08.66,0,0-.09.1-.07.12.17.31-.26.49-.17.78a.23.23,0,0,1,0,.14c-.24.44-.73.75-.69,1.34l-.9,1.29-1.08,1.53s-.09,0-.14,0,0-.12,0-.14a5.85,5.85,0,0,0-.48-.34c-.16.14-.25.4-.53.37,0,0-.07.06-.09.11s0,.37-.12.53-.16.24-.25.35a.26.26,0,0,0-.08.26c.07.25-.07.33-.29.38-.07,0-.13.12-.2.18.19.41-.17.45-.4.58,0,0-.07.08-.07.11a1.15,1.15,0,0,0,.06.28.35.35,0,0,0,.39.07c.11-.1.17-.27.28-.32a2.07,2.07,0,0,1,.56-.12s.09,0,.12.07a.09.09,0,0,1,0,.09c-.19.28-.37.57-.59.84s0,.27,0,.44c-.21.29-.44.6-.66.93,0,.06,0,.17,0,.27s0,.23-.24.27a3.41,3.41,0,0,0-.91.31c-.31.17-.28.13-.26.09a.46.46,0,0,1,.45-.27s.13,0,.14,0,0-.17-.14-.22a1.63,1.63,0,0,1-.22-.17c.14-.25.41-.18.63-.25s.18-.16.15-.33a.24.24,0,0,0,0-.14c-.07-.09-.15-.11-.21-.05-.22.24-.22.24-.54,0-.07.21-.33.34-.32.57a.8.8,0,0,1-.16.51c-.09.19,0,.36.51.26.34-.16.37-.09.35-.07-.27.4-.55.8-.83,1.19,0,0-.09,0-.14,0,0-.14,0-.27-.07-.4s-.06-.07-.09-.1-.13,0-.18.09a.89.89,0,0,1-.16.22c-.09.09-.1.15,0,.2s.08.06.12.06l.4-.07c0,.24.09.48.13.72a.16.16,0,0,1-.09.11c-.31.12-.63.26-.94-.09a3.1,3.1,0,0,0-.31.46,1.36,1.36,0,0,0,0,.41c-.3.22,0,.67-.37.88a.66.66,0,0,1-.2.65C103,25.67,103,25.82,103,26Zm-16.46-.67a1.86,1.86,0,0,0,.41-.08c.06,0,.09-.12.12-.19A.21.21,0,0,0,87,25a3.05,3.05,0,0,0-.54.08c-.08,0-.14.11-.18.18s-.11.16-.12.16a.75.75,0,0,0-.26.05c-.06,0-.13.14-.11.18a.18.18,0,0,0,.23.09l.23-.1a.21.21,0,0,0,.07-.11C86.35,25.34,86.29,25.3,86.57,25.29ZM75,31.83a2.4,2.4,0,0,0-.11-.23c-.08-.12-.1-.11-.22.08a1.82,1.82,0,0,1-.15.23l-.07.11c.07,0,.14.11.21.12s.36-.12,0-.59a3,3,0,0,0-.08-.41s-.06-.06-.09-.09a.37.37,0,0,0-.38,0c-.13.07-.11.37,0,.48a.23.23,0,0,0,.12.06C74.36,31.6,74.49,31.58,75,31.83Zm-2.93.22c0,.09,0,.18,0,.27s.29.3.52.12a.18.18,0,0,0,.08-.11c0-.14,0-.18-.16-.12s-.09,0-.11-.07-.06-.16-.11-.24a.74.74,0,0,0-.16-.19c-.06,0-.13.17.51.48l.58-.1c.07.17-.06.26-.13.37s-.06.43.08.48a.33.33,0,0,0,.37-.06,4,4,0,0,0,.35-.48c-.12-.07-.24-.14-.35-.22s0-.09,0-.14a.17.17,0,0,0,.22-.14,1.76,1.76,0,0,0-.18-1s-.07,0-.11-.06c-.14.4-.53.34-.82.46a.15.15,0,0,0-.08.12s0,.08.08.08l.41,0c.11,0,.15.11.14.22a2.45,2.45,0,0,0-.39.08A1.21,1.21,0,0,1,72.05,32.05Zm-8.92,3.31a1.16,1.16,0,0,0-.42.08,1.23,1.23,0,0,0-.26.33c-.38.07-.76.13-1.13.21,0,0-.06.07-.09.11a.37.37,0,0,0,.07.38c.07.09.15.08.26.06s.25,0,.32.17.11.35.37.3l.7-.13c.13-.13.16-.36.4-.37,0,0,.11,0,.13,0s.23-.31.34-.47-.06-.32-.13-.37-.14,0-.19.11-.11.16-.18.14a.21.21,0,0,1-.14-.23.35.35,0,0,1,.08-.31l.14,0c.23-.05.29-.14.25-.37a.19.19,0,0,0-.15-.2s-.07,0-.09,0l-.23.34a.17.17,0,0,0,0,.24S63.22,35.34,63.13,35.36ZM77,30.86l.22.12s.08.07.12.08.44-.11.41-.28-.07-.38-.1-.57c-.07-.36-.08-.36-.5-.29,0,0-.13,0-.14,0a.19.19,0,0,1,0-.26,1,1,0,0,0,.14-.22l-.83-.59c-.24.36-.25.35-.55.39s-.21,0-.52-.13a.13.13,0,0,0-.1,0c-.1.07-.09.15-.08.26s0,.22.14.22a1.07,1.07,0,0,1,.84.38,3.12,3.12,0,0,1-.34.47c0,.06-.19,0-.26.07a.33.33,0,0,0-.12.24c0,.14.06.28.06.43a.38.38,0,0,1-.11.24c-.08.1-.1.16,0,.22s.16.07.27.05.47-.07.59-.33c0-.1.11-.06.21,0s.19.12.3,0Zm4.42-4.36.29-.05s.11,0,.14,0,.24-.42.54-.4c0,0,.07-.06.09-.1a.43.43,0,0,1,.45-.28c.15,0,.19,0,.11-.17a.15.15,0,0,0-.11-.08c-.31,0-.57,0-.66.13a.74.74,0,0,1-.58.34c-.33,0-.41.32-.52.56.07.09.15.11,1.9-.81.06.33.13.66.17,1a.3.3,0,0,1-.16.19c-.19.06-.38.07-.56.11s-.17,0-.51-.14a.3.3,0,0,0-.38,0,1.41,1.41,0,0,1-.53.41c-.15.08-.23.29-.34.45l-.24.31a.58.58,0,0,1-.06.48,1,1,0,0,0-.26.06c-.06,0-.13.14-.11.18a.18.18,0,0,0,.23.09l.23-.1a.2.2,0,0,0,.07-.12c0-.14,0-.17,0-.13.17-.08.26.08.38.14s.36.06.4,0a2.72,2.72,0,0,0,.33-.48c.11-.24.45-.15.54-.4s.37-.13.45-.29a.65.65,0,0,1,.59-.33l.18,0,.4-.57a.34.34,0,0,1,.49-.07c.21.12.21.12.31,0s.3-.29.59-.11c.11.06.17.11.22,0s.07-.08.06-.12c-.08-.48-.17-1-.26-1.43,0,0-.07-.06-.12-.08a.16.16,0,0,0-.09.06l-.17.25-.85.15c-.15.18-.25.41-.55.4C83.37,25.54,83.22,25.59,81.43,26.5ZM68.05,34.64a.66.66,0,0,1,.41.53s.08.06.11.09c.25.22.26.24,0,.32a.46.46,0,0,0-.31.26c-.09.22-.38.06-.46.29,0,.08-.11.2-.18.21-.57.12-1.14.22-1.71.29-.11,0-.23-.13-.34-.2-.09.14-.18.25-.26.37s-.09.36,0,.41a.46.46,0,0,0,.25.1c.19,0,.38-.13.56,0a.64.64,0,0,0,.52.15,8.37,8.37,0,0,1,1-.18c.24,0,.3-.22.42-.36l.13,0,1-.18.25-.33a2.42,2.42,0,0,0,.33-.48c.1-.27.45-.17.54-.41s.43-.17.55-.4a4.89,4.89,0,0,1,.41-.6l.17-.24.85-.15.09-.12.27-.38-.3-.24a.39.39,0,0,0-.39-.1l-.43.07c-.29.05-.28.05-.31.49,0,.12-.1.17-.17.14s-.1-.05-.11-.09c-.17-.4-.17-.41-.46-.35-.13,0-.3,0-.39.13s-.34.34-.28.63c0,.08,0,.17-.08.25-.18-.05-.28-.28-.51-.2s-.32-.18-.5-.2a.36.36,0,0,0-.27.07A4.14,4.14,0,0,0,68.05,34.64Zm-3.16-.19,1.76-.31.39-.58c.11-.15.26-.19.49,0s.57,0,.77.27a3.31,3.31,0,0,0,1.24-.22.15.15,0,0,0,.08-.11,2.72,2.72,0,0,0-.1-.57c-.1-.27.06-.44.18-.64l-.49-.34-.25.33c-.37,0-.43.32-.61.53a1.9,1.9,0,0,0-.19.21,5.67,5.67,0,0,0-.57.1c-.21.06-.35-.05-.52-.14s-.17.16-.27.23a1.83,1.83,0,0,1-.69.16.47.47,0,0,0-.34.22c-.1.17-.22.32-.34.5-.36.06-.74.12-1.12.21-.06,0-.12.13-.14.21s.09.35.19.35.29,0,.38-.14A1.94,1.94,0,0,1,64.89,34.45Zm14.68-5.12-.6-.42s0-.07-.08-.11,0-.37.09-.39l1.14-.2s.07-.08.09-.12a.15.15,0,0,0-.16-.16c-.57.09-1.14.2-1.71.31a.18.18,0,0,0-.08.12s0,.07,0,.09c.26.23.26.23.3.45s.07.29-.09.53l-.09.12c.09,0,.17.1.25.09a4.51,4.51,0,0,0,.72-.12C79.47,29.5,79.51,29.4,79.57,29.33ZM64.88,35.2c.28.19.55.39.84.57a.27.27,0,0,0,.27,0,2.13,2.13,0,0,0,.34-.45.42.42,0,0,0,0-.27c0-.13-.16-.19-.34-.16a1.26,1.26,0,0,1-.42.06,1.2,1.2,0,0,1-.34-.21ZM48.73,42.05c.08-.12.15-.24.24-.35s.11-.16,0-.21-.09-.07-.12-.06l-1.12.19a.19.19,0,0,0-.08.11.11.11,0,0,0,0,.1,4.68,4.68,0,0,0,.41.32ZM59,35.34c.08.13.26.2.4.31s.14,0,.19-.12a.39.39,0,0,1,.35-.21c.13,0,.29,0,.39-.13s.06-.09,0-.11a.16.16,0,0,0-.12-.08c-.32,0-.66.17-1-.18Zm6.79,2.51c-.08.12-.16.24-.25.35s-.1.15,0,.21a.23.23,0,0,0,.26.05.87.87,0,0,1,.28-.05.22.22,0,0,0,.22-.13c0-.08,0-.13-.12-.19A4.15,4.15,0,0,1,65.8,37.85Zm1.61-2.65c0-.09.1-.17.09-.25,0-.24-.12-.34-.34-.3a1.49,1.49,0,0,0-.42.08.13.13,0,0,0-.07.2s.09.08.11.07C67,34.89,67.22,35.06,67.41,35.2Zm4-2.88s0-.09,0-.1L71.1,32,71,31.9a.62.62,0,0,0-.1.24.51.51,0,0,0,.09.25c0,.09.14.08.25.06S71.4,32.42,71.44,32.32ZM60.79,34.91c.17-.22.17-.38,0-.54s-.26,0-.39,0-.06.07-.08.11a.12.12,0,0,0,0,.1Zm45.29-16c-.08.11-.15.23-.24.34s-.1.16,0,.21a.25.25,0,0,0,.26.06c.16-.05.25-.13.24-.27A.36.36,0,0,0,106.08,18.89Zm-4.34-.28c-.11-.08-.24-.15-.34-.23s-.16-.11-.22-.05a.21.21,0,0,0-.05.25c0,.16.13.25.27.25A.37.37,0,0,0,101.74,18.61Zm9.62-7.88a.37.37,0,0,0-.54,0c-.13.11,0,.26,0,.39s.07.06.11.08a.17.17,0,0,0,.1,0C111.13,11,111.24,10.87,111.36,10.73ZM70.27,32s-.11,0-.14,0-.12.15-.08.2a.23.23,0,0,0,.12.08.36.36,0,0,0,.14,0c.17,0,.28-.14.21-.23A.18.18,0,0,0,70.27,32Zm-3.47,6.2s.08-.07.07-.11a.9.9,0,0,0,0-.28.31.31,0,0,0-.11-.08.12.12,0,0,0-.1,0c-.13.09-.08.4.08.47A.17.17,0,0,0,66.8,38.22ZM87.64,24.51s.1,0,.14,0a.23.23,0,0,0,.08-.11c0-.07,0-.13-.14-.17s-.09,0-.14,0a.2.2,0,0,0-.22.15C87.33,24.47,87.46,24.54,87.64,24.51Zm-33.54,0c-.05,0-.1,0-.14,0s-.12.14-.07.2a.18.18,0,0,0,.11.08.36.36,0,0,0,.14,0c.18,0,.28-.14.21-.23A.18.18,0,0,0,54.1,24.48Zm26.45,1.87a.27.27,0,0,0,.13,0,.2.2,0,0,0,.08-.12c0-.07,0-.13-.14-.16s-.09,0-.13,0a.18.18,0,0,0-.22.14C80.23,26.32,80.37,26.38,80.55,26.35Zm-22.1-4.12s.1,0,.14,0a.31.31,0,0,0,.08-.11c0-.07,0-.14-.14-.17s-.09,0-.14,0a.19.19,0,0,0-.22.14C58.14,22.19,58.27,22.26,58.45,22.23Zm-.34,13.52s-.08-.08-.12-.08a.92.92,0,0,0-.28,0s-.06.06-.08.11a.1.1,0,0,0,0,.09c.09.14.41.09.48-.07S58.11,35.78,58.11,35.75Zm25-7.81s.08-.08.08-.12a.19.19,0,0,0-.11-.08.61.61,0,0,0-.27,0,.75.75,0,0,0-.19.17.62.62,0,0,0,.24.1A.81.81,0,0,0,83.09,27.94Zm-4.41-.37a.5.5,0,0,0-.13,0c-.1.07-.12.15-.08.2a.2.2,0,0,0,.12.08.3.3,0,0,0,.13,0c.18,0,.28-.14.22-.23A.19.19,0,0,0,78.68,27.57ZM70.5,31.68a.32.32,0,0,0,.14,0,.2.2,0,0,0,.08-.12c0-.07,0-.13-.14-.16s-.09,0-.14,0a.18.18,0,0,0-.22.14C70.19,31.64,70.32,31.71,70.5,31.68Zm30.19-5.53a.6.6,0,0,0,.06.11l.12.08a1.22,1.22,0,0,0,.1-.24c0-.16-.15-.38-.2-.33a.53.53,0,0,0-.11.24S100.68,26.1,100.69,26.15ZM64.81,39.81s-.1,0-.14,0-.12.14-.07.2a.21.21,0,0,0,.11.08.36.36,0,0,0,.14,0c.18,0,.28-.14.21-.23A.17.17,0,0,0,64.81,39.81Z" fill="#fd943c"/><path d="M52.78,49.05c0,.19.06.38.1.57s0,.24-.17.33-.2,0-.25.1c-.23.3-.44.62-.67,1-.23,0-.46.1-.7.12a.39.39,0,0,0-.31.25c-.08.16-.26.11-.36.18s-.16.26-.27.33a1.84,1.84,0,0,1-.42.08c0-.11,0-.17-.14-.23-.32-.23-.32-.3-.1-.69a.17.17,0,0,0,0-.11c-.07-.09-.15-.09-.26-.08A.26.26,0,0,0,49,51l-.17.24-.61.11-.21.34c-.11.15-.11.15.08.3s.13.24,0,.27a.66.66,0,0,0-.44.32.33.33,0,0,1-.38.08c-.11,0-.16-.11-.11-.51s0-.26-.05-.23,0,.25,0,.38,0,.18.16.11a.16.16,0,0,0,.08-.1c.08-.2,0-.45-.18-.16s-.15.33-.17.31a.8.8,0,0,0-.93-.11s-.07.07-.08.12,0,.06.06.09a.28.28,0,0,0,.27,0,.25.25,0,0,1,.26.09l-.24.39c.19,0,.37.05.55.09,0,0,.07.06.06.09s0,.1-.08.11-.19,0-.27.07-.13.18,0,.29.16.13,0,.31a.4.4,0,0,0,0,.4c.07.14.21.14.37.13s.38.25.23.49-.18.21-.13.39,0,.48.32.6a.13.13,0,0,1,.07.08.23.23,0,0,1-.21.17.24.24,0,0,1-.27,0,.23.23,0,0,1-.08-.11c0-.23-.08-.47-.13-.71s-.15-.21-.33-.18l-.29,0a5.54,5.54,0,0,0-.2-.85c-.2-.27-.3-.27-.38-.23a.74.74,0,0,0-.15.19s.07.06.11.07.4-.08.49.11,0,.18.17.11a.31.31,0,0,0,.08-.11.36.36,0,0,0-.05-.37c-.1-.14-.25-.07-.27.23s0,.27,0,.3l-.36.51c.07.35.14.73.19,1.11,0,.07-.08.18-.15.21s-.27.06-.35.21-.23.32-.34.48c-.21,0-.36-.25-.63-.16a4.19,4.19,0,0,1-.86.15.14.14,0,0,1-.16-.16s.06-.11.09-.11c.38,0,.43-.33.61-.54,0,0,0-.08-.06-.09a.76.76,0,0,0-.77.21l-.67,1a.12.12,0,0,0,0,.1s.08.08.12.08c.24,0,.48-.07.71-.13s.22,0,.26.07,0,.16-.08.22-.11.15,0,.21a2.07,2.07,0,0,1,.24.17.46.46,0,0,1,0,.4c-.15.11-.38.08-.46.29s-.22.15-.34.21a1.28,1.28,0,0,0-.29.32c-.11-.07-.22-.15-.35-.22s-.15-.11-.11-.19.14-.1.24-.13.24-.12.22-.3-.05-.29-.08-.43-.28-.18-.37-.11a.58.58,0,0,0-.2.18c-.21.33-.43.64-.9.61-.09,0-.15.12-.12.19a.13.13,0,0,0,.11.08,2,2,0,0,0,.43-.06.24.24,0,0,1,.27.05c.05.06,0,.13-.06.22a.25.25,0,0,0-.08.12s0,.07,0,.09c.24.25.24.25-.05.4a1.12,1.12,0,0,0-.21.17l.23.17s.1.07.09.09a.22.22,0,0,1-.2.17,1.6,1.6,0,0,1-.29,0,.4.4,0,0,0-.33.24.28.28,0,0,1-.22.16c-.18.05-.41,0-.52.18s0,.38,0,.56a.6.6,0,0,1-.1.25l-.12-.09-.37-.26c.07-.11.14-.23.23-.36L39.44,61a.35.35,0,0,0-.5,0l-.17.24c-.08.09-.12.16-.07.22s.16.07.27.06.28,0,.31.18a1.11,1.11,0,0,1,.07.43,1,1,0,0,1-.39.57c-.12.1-.4,0-.42-.22s0-.2-.15-.23-.12,0-.19.15-.21.14-.28,0a2.76,2.76,0,0,0-.08-.27.2.2,0,0,0-.12-.08s-.08.06-.08.1c0,.23,0,.47-.21.64,0,.18,0,.38-.11.53s0,.27-.06.4-.19.24-.22.37a1.38,1.38,0,0,0,.07.43c-.23,0-.47,0-.61.31a.79.79,0,0,1-.61.53s0,.08-.08.11a.7.7,0,0,0-.18.79l-1,.17c-.11,0-.17.17-.14.34s0,.18,0,.27l-.43.08-.6-.42a.09.09,0,0,0-.1,0,.19.19,0,0,0-.07.25c.07.17,0,.42.19.52a1.75,1.75,0,0,0,.4,0s.1.06.1.08a.15.15,0,0,1-.08.12,2.75,2.75,0,0,1-.41.11c-.26.06-.26.06-.28.38a.3.3,0,0,1-.48.26c-.12-.07-.21-.22-.4-.21a1.64,1.64,0,0,0-.06-.33c0-.06-.15-.13-.19-.11a.18.18,0,0,0-.08.23,1.6,1.6,0,0,0,.1.23.21.21,0,0,0,.11.07c.14,0,.18,0,.12-.09.07.17,0,.27-.05.33s-.28.09-.36.18-.22.29-.44.31a8.13,8.13,0,0,0-.86.15.17.17,0,0,0-.13.2s.09.09.12.08c.34-.12.53.13.76.29a1,1,0,0,1,.1.67.23.23,0,0,1-.09.11.34.34,0,0,1-.45-.18c-.13-.31-.13-.3-.39-.27a.72.72,0,0,0-.59.34c-.2.33-.2.42.14.7,0,0,.08.06.07.09a.23.23,0,0,1-.21.16l-.46.08-.65.93c-.11.17-.37.07-.46.29s-.17.23-.24.36,0,.09,0,.14,0,.19.05.29,0,.11,0,.14-.22.32-.33.48L27.76,74a.34.34,0,0,0-.49.07c-.13.2-.32.35-.25.64s.22.66-.1.94a5.54,5.54,0,0,1,.07.57c0,.11-.07.18-.15.16s-.11,0-.11-.08c-.05-.19-.08-.38-.12-.57s-.31-.14-.39-.09a2.86,2.86,0,0,0-.52.68c-.15.19-.24.43-.54.4l-.27.35c-.22,0-.33.13-.44.3-.21.32-.22.32-.79.51-.05,0-.08,0-.12.07-.31.19-.31.19-.53,0l-.84.15c-.31,0-.46.16-.39.25s.27,0,.41,0a.21.21,0,0,1,.12.07c0,.06,0,.19-.08.2a.68.68,0,0,0-.46.31.29.29,0,0,1-.53-.1c-.08-.22-.14-.29-.26-.27l-.43.07c-.14,0-.21.15-.18.33a2.93,2.93,0,0,1,.05.29l0,.28.08.44c-.16.16-.2.45-.46.52-.11,0-.19,0-.25.12l-.75,1.08a.66.66,0,0,0,0,.14c0,.27-.06.36-.29.37s-.22,0-.28-.24c0,0,0-.11,0-.14-.36-.45-.36-.45-.42-.7s0-.21-.29-.22c-.05,0-.1,0-.15,0s-.19-.07-.18-.14.12-.14.22-.17.29-.13.27-.26-.1-.47-.12-.71a.39.39,0,0,1,.1-.25c.09-.1.12-.19,0-.22-.35-.14-.3-.46-.37-.76.16-.22.33-.45.49-.7.06-.09.11-.17.21-.16.3,0,.28-.38.55-.4a.21.21,0,0,0,.14,0c.12-.15.22-.31.35-.46a4.7,4.7,0,0,1,.7-.91c.41,0,.44-.47.67-.69a.21.21,0,0,1,.14,0c.17,0,.24-.11.27-.26.07-.48.11-.54.49-.77,0,0,.09,0,.13,0a1.25,1.25,0,0,0,.08-.12,3.33,3.33,0,0,1,.34-.47,1.41,1.41,0,0,1,.37-.18s.07-.09.06-.12c-.08-.29,0-.46.32-.48l.69-.93c.11-.15.28-.17.5,0a1.25,1.25,0,0,0,.12.08.35.35,0,0,0,.48-.15l-.33-.26c.19-.32.51-.57.46-1,0-.11.11-.16.22-.15a.19.19,0,0,0,.23-.14.36.36,0,0,0,0-.14.31.31,0,0,1,.11-.37.77.77,0,0,1,.27-.07l.7-1a6.53,6.53,0,0,1,.81-.13c.37,0,.48-.28.65-.51a.36.36,0,0,0-.05-.39.5.5,0,0,0-.12-.08c-.12,0-.16-.11-.12-.19s.12-.12.23-.13.47-.11.67.11a.13.13,0,0,0,.1,0c.13-.15.24-.31.36-.46l-.7-.49c.21-.26.3-.57.66-.57.06-.35.48-.28.62-.53l-.32-.26s0-.1.08-.11l1.12-.25c.06,0,.16-.15.14-.19s-.15-.09-.25-.09c-.32,0-.33,0-.22-.24a2.77,2.77,0,0,0,.1-.26s0-.09,0-.14.07-.23.27-.26l.41-.08c.14-.25.42-.43.32-.77,0-.05.1-.17.17-.19a3.29,3.29,0,0,1,.43-.09c.14,0,.21-.14.17-.33s0-.21.07-.25.16,0,.22.08a.29.29,0,0,0,.26.08l.71-.13a.22.22,0,0,0,.1-.09c.06-.08,0-.13-.1-.2a2.69,2.69,0,0,1-.47-.34.33.33,0,0,1-.08-.26.31.31,0,0,1,.14-.21.55.55,0,0,1,.28-.06.48.48,0,0,0,.44-.31c.07-.12.22-.21.21-.4a1.4,1.4,0,0,0,.33-.06c.06,0,.13-.15.12-.19a.18.18,0,0,0-.23-.08,1.22,1.22,0,0,0-.24.1.21.21,0,0,0-.07.11c0,.14,0,.18.09.12a4.21,4.21,0,0,1-.5.08s-.11,0-.11-.07c.07-.34.34-.55.5-.83a.21.21,0,0,1,.11-.07,2.74,2.74,0,0,1,.85-.09.25.25,0,0,1,.12.08c.17.17.36,0,.55,0a.4.4,0,0,0,.33-.23l.16-.24c0-.08,0-.14-.12-.19s-.18-.2-.21-.35-.09-.38.08-.53.06-.27.06-.41.1-.18.27-.08.08.07.12.08c.28,0,.58,0,.76-.25,0-.09.11-.17.21-.17a.83.83,0,0,0,.79-.53c0-.08.11-.22.17-.22.3,0,.41-.22.53-.43a.81.81,0,0,1,.54-.4l.68-1s.08,0,.13,0a.36.36,0,0,1,.14,0c.12,0,.19.11.14.17-.21.32-.44.64-.66,1,0,0,0,.1-.05.16a1.15,1.15,0,0,0-.33.06c-.06,0-.13.14-.11.19a.18.18,0,0,0,.23.08l.23-.1a.16.16,0,0,0,.07-.11c0-.14,0-.18-.09-.12l.65-.12c.21,0,.25-.05.24-.27s0-.39.25-.41a.27.27,0,0,0,.23-.16c0-.07.11-.12.17-.17l.62.43.24-.3c.08-.09.12-.17.08-.23a.18.18,0,0,0-.26-.05.18.18,0,0,1-.26-.07,2.42,2.42,0,0,0-.18-.36c-.21-.27-.22-.27-.11-.4l.08-.12c.18-.25.27-.27.59-.11s.4.13.51,0a4.07,4.07,0,0,0,.33-.48c.09-.16.24-.12.37-.17s.07-.07.08-.11,0-.16-.15-.16-.3.08-.4-.06.06-.16.11-.23a.22.22,0,0,0,.07-.26.24.24,0,0,1,0-.14.19.19,0,0,1,.07-.12c.06-.06.16,0,.21.07.18.4.17.4.46.35l.14,0c.26,0,.33-.13.28-.38a.66.66,0,0,1,.12-.67,1,1,0,0,0,.24-.36,1.75,1.75,0,0,0,0-.4s.06-.08.08-.08.11,0,.12.08c.07.27.23.54,0,.8l-.09.12c.08,0,.16.11.24.11s.35-.1.32-.21a.52.52,0,0,1,.14-.53.15.15,0,0,0,.05-.12c-.06-.27,0-.59-.36-.73-.07,0-.06-.15,0-.21s.29,0,.37-.18a.42.42,0,0,1,.32-.25c.24,0,.48-.08.7-.12l.51-.74a.68.68,0,0,0,.09-.14l-.55-.09S46,47.42,46,47.4s0-.11.08-.12.28-.05.42-.1a.36.36,0,0,1,.38.14c.09.07.17.1.58.11.26-.08.15-.14,0-.11s-.15,0-.35.31-.21.32-.33.47,0,.15.09.19.09,0,.14,0a.25.25,0,0,0,.24-.12c.08-.11.12-.24.3-.28s.3-.19-.07-.46-.34-.25-.36-.35,0-.3.18-.32.48-.08.71-.14.14-.12.2-.19.21-.13.28,0c.18.37.18.37.48.32l.58-.11c.09-.11.15-.26.27-.33a1.12,1.12,0,0,1,.42-.08l.14,0,.51.36c0,.16,0,.36.1.54s.15.15.19.1a.87.87,0,0,1,.43-.34.78.78,0,0,0,.39-.53s-.07-.07-.11-.08-.28.09-.41,0a.48.48,0,0,0-.53-.13s-.09,0-.11-.08a.13.13,0,0,1,.09-.19c.47-.1,1-.18,1.42-.26.14-.26.42-.44.31-.78,0,0,0-.1.07-.12s.17-.06.25-.11a1.07,1.07,0,0,0,.19-.18l-.5-.35-1.12.2c-.1,0-.24-.15-.23-.31a.89.89,0,0,1,.09-.26l.36.23.86-.15c.14,0,.31,0,.36-.18a2.62,2.62,0,0,0,0-.28.29.29,0,0,1,.29-.25c.18,0,.22,0,.3.22s.18.32.4.25.21-.13.17-.32,0-.22.07-.26a1.09,1.09,0,0,0,.54-.41c.1-.15.41-.09.48.08a.66.66,0,0,0,.2.35c.22.18.21.23-.09.31a.3.3,0,0,0-.22.16.42.42,0,0,1-.32.25c-.26,0-.26.39-.55.4a2.82,2.82,0,0,0-.7.15.17.17,0,0,0-.08.12s.07.08.11.08c.62,0,1.21-.24,1.84-.22,0,0,.1.06.09.09a.16.16,0,0,1-.07.11,1.43,1.43,0,0,1-.27.09.88.88,0,0,0-.28.06.35.35,0,0,0-.16.2c0,.09,0,.23,0,.28a1.17,1.17,0,0,0-.21.65,1.33,1.33,0,0,1-.25.44l-.93.17a2,2,0,0,0-.25-.18.41.41,0,0,0-.39,0c-.12.15-.23.31-.34.46a.38.38,0,0,0,.41.09.53.53,0,0,1,.65.19l.28-.35c.37-.07.75-.15,1.13-.19a.11.11,0,0,1,.13.16.16.16,0,0,1-.08.11c-.34.15-.35.15-.45.3l-.18.25a4.08,4.08,0,0,1,.33.25s0,.09,0,.14a1.28,1.28,0,0,1-.42.07,1.51,1.51,0,0,1-.36-.22.7.7,0,0,1-.67.41c-.21,0-.21,0-.23.28a1.18,1.18,0,0,1,0,.27c0,.1-.12.11-.22.13l-1.13.2a1.51,1.51,0,0,1-.05-.28.22.22,0,0,0-.14-.23.39.39,0,0,0-.38,0c-.11.16-.22.31-.32.47s0,.09,0,.14-.12,0-.13,0a.72.72,0,0,1-.68.42c-.22,0-.3.19-.23.41a.27.27,0,0,0,.34.16l.28-.05c0,.11,0,.2.13.22s.35.05.59.09c-.2.27-.38.48-.54.71,0,0,0,.09-.05.15A1.15,1.15,0,0,0,50,51c-.06,0-.13.14-.11.19a.18.18,0,0,0,.23.08l.23-.1a.16.16,0,0,0,.07-.11c0-.14,0-.18-.09-.12l.21,0c.32-.05.67-.05.81-.43.67-.52.67-.52.88-1.26,0-.1.12-.13.23-.13ZM18.2,80.21l.38.28c.09.06.36.09.41,0a.44.44,0,0,0,.1-.25c-.05-.29-.13-.57.13-.81,0,0,0-.07-.06-.08a.4.4,0,0,0-.4,0C18.57,79.68,18.38,79.94,18.2,80.21ZM44.53,55.26a1.12,1.12,0,0,1-.17.21c-.29.29-.16.6,0,.9a.16.16,0,0,0,.12.08,8.22,8.22,0,0,0,.84-.15.14.14,0,0,0,.09-.2.17.17,0,0,0-.12-.08.3.3,0,0,0-.13,0c-.2,0-.3,0-.34-.16S44.79,55.4,44.53,55.26ZM21.8,78c.08-.12.17-.23.24-.35s.15-.3-.1-.57l-.24.35C21.54,77.61,21.56,77.68,21.8,78ZM41,59.44a2,2,0,0,0-.42.08c-.1,0-.13.14-.08.2a.21.21,0,0,0,.11.08.32.32,0,0,0,.14,0l.28-.05c.18,0,.29-.15.23-.23A.19.19,0,0,0,41,59.44Zm-5.44,5.4.08-.1c.06-.08.1-.16.16-.23s.11-.15.06-.21a.2.2,0,0,0-.25-.06c-.16.05-.26.13-.25.27A.35.35,0,0,0,35.52,64.84Zm2.11-3.63s.11,0,.14,0A1.62,1.62,0,0,0,38,61l-.25-.1a.18.18,0,0,0-.14,0,1.62,1.62,0,0,0-.19.18Zm-5.56,1.72L32,62.85a.4.4,0,0,0-.38.07.38.38,0,0,0-.08.11.62.62,0,0,0,.24.1C31.9,63.14,32.09,63,32.07,62.93Zm2.38,2a.13.13,0,0,0,0-.09c-.12-.13-.44-.07-.47.09A.1.1,0,0,0,34,65,.31.31,0,0,0,34.45,64.93ZM46.11,53.34s-.07-.07-.11-.08a.35.35,0,0,0-.38.07.23.23,0,0,0-.08.11,1.22,1.22,0,0,0,.24.1C45.94,53.55,46.13,53.42,46.11,53.34Zm-1.64.73a.27.27,0,0,0,.13,0,.2.2,0,0,0,.08-.12c0-.07,0-.13-.14-.16s-.09,0-.13,0a.18.18,0,0,0-.22.14C44.16,54,44.29,54.1,44.47,54.07Zm-1.22,1.8s-.08-.07-.12-.07a.81.81,0,0,0-.27.05s-.07.06-.09.1a.12.12,0,0,0,0,.1c.09.13.41.08.48-.08S43.25,55.91,43.25,55.87Zm-1.34.83s-.08-.08-.12-.07a1.26,1.26,0,0,0-.27,0,.24.24,0,0,0-.09.11.17.17,0,0,0,0,.1.32.32,0,0,0,.48-.08S41.91,56.74,41.91,56.7Z" fill="#fd943c"/><path d="M57.52,37.23c0,.12,0,.23.14.22a1,1,0,0,1,.76.28s.08.07.08.09a.23.23,0,0,1-.21.17l-.14,0a.56.56,0,0,0-.55.4c-.46.08-.93.15-1.4.25-.06,0-.16.14-.15.18a.2.2,0,0,0,.24.09.39.39,0,0,1,.14,0c.08,0,.19.09.19.13s-.1.16-.2.17l-.14,0a.56.56,0,0,1-.64-.17l-.17.21a.36.36,0,0,1-.48.1c-.12-.07-.21-.22-.38-.14,0,0,0-.11,0-.14.16-.22.34-.44.55-.71l-.59-.08a.18.18,0,0,1-.14-.22c.52-.09,1-.21,1.57-.27a.69.69,0,0,0,.54-.4Z" fill="#fd943c"/><path d="M59.84,41c-.21-.07-.37-.27-.64-.18-.08,0-.16-.08-.14-.16a1.25,1.25,0,0,0,.08-.12c.1-.15.07-.27-.08-.27s-.28.07-.4,0a.41.41,0,0,0-.25-.13c-.14,0-.34.06-.38-.08s.17-.17.31-.22.2-.14-.06-.34c-.09-.07-.1-.15,0-.21.36-.18.37-.17.54-.42a.64.64,0,0,0,.64.2.18.18,0,0,1,.11.08,3.25,3.25,0,0,1,.11.42c.06.26.06.25.38.27s.31,0,.21.2-.18.18-.16.23C60.27,40.54,60,40.71,59.84,41Z" fill="#fd943c"/><path d="M58.11,44l.15,0a.46.46,0,0,1,.52.11c.13.13.28.06.4,0a.22.22,0,0,0,.09-.25,2.17,2.17,0,0,0-.08-.43c0-.06-.12-.09-.19-.14l-.08.12c-.15.19-.26.22-.3.07a.69.69,0,0,1,0-.28c0-.08.11-.15.15-.24a.62.62,0,0,1,.58-.34c.26,0,.35,0,.4.26a.64.64,0,0,1-.11.66c-.07.07,0,.14.1.19s.17.12.13.18c-.18.28-.41.54-.57.84s-.43.34-.71.38-.25-.09-.28-.26S58.16,44.24,58.11,44Z" fill="#fd943c"/><path d="M112.33,8s.11,0,.14,0a2.56,2.56,0,0,1,.35.22l.09-.13q.24-.3.3-.09c0,.14.1.27,0,.41a5.22,5.22,0,0,0-.34.48.35.35,0,0,0,0,.27c0,.26-.23.4-.33.61l-.43.08a1.26,1.26,0,0,1-.06-.42c0-.13.17-.23.21-.36s-.1-.27,0-.39S112.37,8.23,112.33,8Z" fill="#fd943c"/><path d="M93.29,22.92c0-.14-.1-.29-.06-.42a.8.8,0,0,1,1-.56s.09.07.08.08c-.08.16-.25.27-.19.5s.29.2.32.39a.11.11,0,0,1-.08.11c-.13,0-.27.12-.39,0a.48.48,0,0,0-.53-.11Z" fill="#fd943c"/><path d="M55.05,47.76s-.18,0-.32,0a.15.15,0,0,1-.11-.08c-.08-.13,0-.17.11-.16a.46.46,0,0,0,.46-.28c0-.05.05-.11.08-.11.3,0,.42-.14.37-.46s.18-.3.4-.26.24.28.19.35c-.18.28-.35.56-.55.83,0,.06-.16.08-.25.1Z" fill="#fd943c"/><path d="M51.53,48.68c0,.17.13.23.24.29s.16.12,0,.19-.42.14-.52.38c0,.06-.15.09-.23.11l-.82.14c-.07-.27.12-.29.31-.35s.2-.14.16-.33,0-.19-.05-.28Z" fill="#fd943c"/><path d="M48.31,54c-.05,0-.11,0-.15,0a3.06,3.06,0,0,1-.47-.33.31.31,0,0,1-.07-.27,2.41,2.41,0,0,1,.3-.48.33.33,0,0,1,.39-.07l.24.16c.14.1.13.09,0,.42a2.71,2.71,0,0,0,0,.41A.17.17,0,0,1,48.31,54Z" fill="#fd943c"/><path d="M41.2,62.51l-.34.49a2.69,2.69,0,0,0-.32-.19c-.13,0-.27,0-.4,0s-.08-.06-.07-.08a.19.19,0,0,1,.07-.12l.26-.07c.14,0,.28,0,.39-.13s0-.27,0-.4a.15.15,0,0,1,.08-.11.13.13,0,0,1,.19.09A3.57,3.57,0,0,1,41.2,62.51Z" fill="#fd943c"/><path d="M38,62.93s.1,0,.13,0c.24.15.47.31.7.47s.17.24,0,.28a.56.56,0,0,1-.28.05.69.69,0,0,1-.23-.16c-.08-.07-.15-.06-.26,0s-.33-.07-.34-.3A.23.23,0,0,1,38,62.93Z" fill="#fd943c"/><path d="M31.86,59.26a3.44,3.44,0,0,1-.56.09.12.12,0,0,1-.13-.16.2.2,0,0,1,.08-.12c.34-.14.34-.13.44-.27l.08-.12a.54.54,0,0,1,.4,0c0,.06,0,.12-.06.21a1.88,1.88,0,0,0-.16.23Z" fill="#fd943c"/><path d="M34.62,57.29a.21.21,0,0,1,.26,0c.07.06,0,.12,0,.21s-.15.24-.25.35-.41,0-.46-.14,0-.38.21-.41Z" fill="#fd943c"/><path d="M108.5,15.8l.3-.06a.45.45,0,0,1,.14,0,.19.19,0,0,1,0,.26c-.14.13-.17.35-.38.41a.28.28,0,0,1-.27,0c-.09-.06-.07-.11,0-.21S108.42,15.91,108.5,15.8Z" fill="#fd943c"/><path d="M37.74,64.76a1.12,1.12,0,0,1-.31.6.14.14,0,0,1-.09,0s-.1-.06-.1-.09c-.05-.23-.09-.47-.13-.7.17-.08.26.06.37.14A.23.23,0,0,0,37.74,64.76Z" fill="#fd943c"/><path d="M52.61,41.36c.33-.06.65-.12,1-.16.06,0,.13.08.19.13s-.05.1-.08.11a2.18,2.18,0,0,1-.94.14C52.64,41.56,52.6,41.47,52.61,41.36Z" fill="#fd943c"/><path d="M51.77,44.91a3.62,3.62,0,0,0-.26.37c-.06.1-.1.14-.18.11a.24.24,0,0,1-.13-.23.92.92,0,0,0-.05-.28.19.19,0,0,1,.06-.25c0-.05.12,0,.21.06S51.65,44.83,51.77,44.91Z" fill="#fd943c"/><path d="M14.43,80.75a.19.19,0,0,1-.07.25s-.08,0-.11,0a2.22,2.22,0,0,1-.35-.25.36.36,0,0,1-.09-.38c0-.16.07-.16.26,0a4.19,4.19,0,0,1,.33.26S14.42,80.7,14.43,80.75Z" fill="#fd943c"/><path d="M20.47,79.66l0-.28c.19,0,.22-.15.31-.26l.08-.1a.75.75,0,0,1,.17.19,1.2,1.2,0,0,1,.07.42c0,.08-.06.16-.09.24l-.12-.07C20.73,79.73,20.64,79.59,20.47,79.66Z" fill="#fd943c"/><path d="M45.4,57.7c0-.15.08-.23.24-.27a.23.23,0,0,1,.25,0c.06.06,0,.13,0,.21a.94.94,0,0,0-.09.12c-.19.28-.2.29-.27.15A2.5,2.5,0,0,1,45.4,57.7Z" fill="#fd943c"/><path d="M35,67.75s0,.09-.06.11-.4.15-.47,0a.38.38,0,0,1,0-.37c0-.14.07-.14.24,0A4,4,0,0,0,35,67.75Z" fill="#fd943c"/><path d="M59,41.42a1.57,1.57,0,0,1,.28,0c.12,0,.17.1.14.17s-.05.1-.08.11a2.82,2.82,0,0,1-.57.09.12.12,0,0,1-.13-.16c0-.05,0-.1.09-.11A2.14,2.14,0,0,1,59,41.42Z" fill="#fd943c"/><path d="M46.09,44a.37.37,0,0,1,.22.34c0,.14-.09.22-.25.27a.23.23,0,0,1-.25-.06c-.05,0,0-.12,0-.21S46,44.1,46.09,44Z" fill="#fd943c"/><path d="M47.83,43.69a.92.92,0,0,1,.28,0c.11,0,.16.1.13.17a.19.19,0,0,1-.08.11,3.66,3.66,0,0,1-.56.1.14.14,0,0,1-.14-.17s0-.1.09-.11A1.26,1.26,0,0,1,47.83,43.69Z" fill="#fd943c"/><path d="M55.24,45.35a.7.7,0,0,1,.28,0c.12,0,.17.1.14.17s0,.1-.09.1a2.13,2.13,0,0,1-.56.1.13.13,0,0,1-.13-.17A.31.31,0,0,1,55,45.4,2.74,2.74,0,0,1,55.24,45.35Z" fill="#fd943c"/><path d="M40.86,48.77a1,1,0,0,1-.3.6s-.07,0-.1,0a.22.22,0,0,1-.1-.09.58.58,0,0,1,0-.14c0-.09,0-.18,0-.28Z" fill="#fd943c"/><path d="M53.69,48.29a.92.92,0,0,1-.28.05c-.11,0-.17-.09-.14-.16s0-.11.08-.12a2.62,2.62,0,0,1,.56-.09.13.13,0,0,1,.14.16s0,.1-.08.11A1.26,1.26,0,0,1,53.69,48.29Z" fill="#fd943c"/><path d="M50.08,52.34s0,.08-.06.1c-.18.14-.4.15-.47,0a.43.43,0,0,1,0-.37c.06-.14.07-.14.24,0Z" fill="#fd943c"/><path d="M51.46,52.54a.36.36,0,0,1-.2-.33c0-.14.09-.23.24-.27a.22.22,0,0,1,.26.05c.05.06,0,.13-.06.22a1.88,1.88,0,0,0-.16.23Z" fill="#fd943c"/><path d="M49.4,54.05a1.84,1.84,0,0,1-.25.09c-.14,0-.23-.08-.27-.24a.23.23,0,0,1,0-.26c.06,0,.12,0,.21,0l.34.25Z" fill="#fd943c"/><path d="M46.51,55.64s0,.08-.06.1c-.18.14-.4.15-.47,0a.38.38,0,0,1,0-.37c.05-.14.06-.14.24,0S46.4,55.55,46.51,55.64Z" fill="#fd943c"/><path d="M57.38,45.27a.36.36,0,0,1,.14,0,.45.45,0,0,1,.24.11c.05,0-.17.2-.33.19a.62.62,0,0,1-.24-.1,1,1,0,0,1,.08-.11A.67.67,0,0,1,57.38,45.27Z" fill="#fd943c"/><path d="M54.71,41.88l-.24-.1a1.62,1.62,0,0,1,.19-.18.18.18,0,0,1,.14,0l.24.11-.19.18A.59.59,0,0,1,54.71,41.88Z" fill="#fd943c"/><path d="M63.32,40c0,.13-.25.21-.45.14a.28.28,0,0,1-.11-.08c-.07-.12,0-.17.11-.16s.26-.09.39,0Z" fill="#fd943c"/><path d="M52.29,41.76a.32.32,0,0,1,.08.48.1.1,0,0,1-.09,0c-.16,0-.22-.35-.09-.47S52.25,41.77,52.29,41.76Z" fill="#fd943c"/><path d="M59.4,38.34a.61.61,0,0,1-.25.08,1,1,0,0,1-.25-.09c.07-.07.12-.15.2-.18a.46.46,0,0,1,.26,0s.11,0,.11.08S59.43,38.3,59.4,38.34Z" fill="#fd943c"/><path d="M99.41,19.05c0,.13-.25.22-.45.15a.22.22,0,0,1-.1-.09c-.08-.12,0-.16.11-.16s.25-.08.38,0A.24.24,0,0,1,99.41,19.05Z" fill="#fd943c"/><path d="M52.91,49c-.12.06-.18,0-.15-.11a.16.16,0,0,1,.07-.12l.23-.1a.18.18,0,0,1,.23.09s-.06.15-.11.18A1.18,1.18,0,0,1,52.91,49Z" fill="#fd943c"/><path d="M37.81,64.17c.13,0,.21.26.14.46a.27.27,0,0,1-.08.1c-.13.07-.17,0-.16-.11s-.09-.26,0-.38S37.78,64.2,37.81,64.17Z" fill="#fd943c"/><path d="M79.69,11.37c-.18,0-.31,0-.28-.15a.18.18,0,0,1,.22-.14s.1,0,.14,0,.16.1.14.17a.31.31,0,0,1-.08.11A.58.58,0,0,1,79.69,11.37Z" fill="#fd943c"/><path d="M103.05,26.09c-.07-.12,0-.18.11-.15a.16.16,0,0,1,.11.07.94.94,0,0,1,.1.23.18.18,0,0,1-.08.23s-.15,0-.19-.11A1.17,1.17,0,0,1,103.05,26.09Z" fill="#fd943c"/><path d="M36.22,66.38c0,.14-.26.22-.46.15a.22.22,0,0,1-.1-.09c-.07-.12,0-.16.11-.15s.26-.09.38,0S36.19,66.35,36.22,66.38Z" fill="#fd943c"/><path d="M34.64,67.38l-.06-.29A3.49,3.49,0,0,1,35,67c.11,0,.16.1.13.17a.19.19,0,0,1-.08.11Z" fill="#fd943c"/><path d="M33.16,69.67s-.08,0-.1,0c-.17-.07-.22-.39-.08-.48a.17.17,0,0,1,.1,0s.09,0,.1.09a.86.86,0,0,1,0,.27S33.18,69.63,33.16,69.67Z" fill="#fd943c"/><path d="M28.3,73.54c0-.1,0-.19-.05-.29a3.07,3.07,0,0,1,.42-.07c.12,0,.17.1.14.17s0,.1-.09.11S28.44,73.51,28.3,73.54Z" fill="#fd943c"/><path d="M94.2,21.45c0,.14-.26.22-.46.15a.27.27,0,0,1-.1-.08c-.07-.13,0-.17.11-.16s.26-.09.38,0A.5.5,0,0,1,94.2,21.45Z" fill="#fd943c"/><path d="M14.11,79.62c.13,0,.21.26.14.45a.18.18,0,0,1-.08.11c-.12.07-.16,0-.16-.11s-.09-.26,0-.38A.27.27,0,0,1,14.11,79.62Z" fill="#fd943c"/><path d="M57.11,46.66c0,.07-.18.21-.34.2a1.22,1.22,0,0,1-.24-.1,1.25,1.25,0,0,1,.08-.12.37.37,0,0,1,.38-.06A.42.42,0,0,1,57.11,46.66Z" fill="#fd943c"/><path d="M50.11,44.77c.12-.07.18,0,.15.11a.16.16,0,0,1-.07.11.94.94,0,0,1-.23.1.18.18,0,0,1-.23-.08s.05-.15.11-.19A1.17,1.17,0,0,1,50.11,44.77Z" fill="#fd943c"/><path d="M50.37,44.72c-.12.07-.18,0-.15-.11a.21.21,0,0,1,.07-.11l.23-.1a.18.18,0,0,1,.23.09s0,.15-.11.18A.81.81,0,0,1,50.37,44.72Z" fill="#fd943c"/><path d="M48.18,44.82a.18.18,0,0,1-.06.25c-.09.07-.2,0-.23-.21a.36.36,0,0,1,0-.14.16.16,0,0,1,.07-.11c.06,0,.14,0,.21.07A.58.58,0,0,1,48.18,44.82Z" fill="#fd943c"/><path d="M52.75,42.53s.09,0,.13,0a.53.53,0,0,1,.24.11c.05,0-.17.21-.32.2a1.09,1.09,0,0,1-.25-.1.94.94,0,0,1,.09-.12A.39.39,0,0,1,52.75,42.53Z" fill="#fd943c"/><path d="M56.24,48.44a.18.18,0,0,1,.25.06c.07.09,0,.2-.21.23a.36.36,0,0,1-.14,0,.18.18,0,0,1-.11-.08c-.05-.06,0-.13.07-.2S56.19,48.45,56.24,48.44Z" fill="#fd943c"/><path d="M108,17.56a.31.31,0,0,1-.47.09.17.17,0,0,1,0-.1c0-.16.35-.22.48-.09S108,17.53,108,17.56Z" fill="#fd943c"/><path d="M76.88,30c.13-.07.19,0,.16.11a.21.21,0,0,1-.07.11l-.23.1a.17.17,0,0,1-.23-.08c0-.05,0-.16.11-.19A.71.71,0,0,1,76.88,30Z" fill="#fd943c"/></g></g></svg>